<svg width="125" height="80" viewBox="0 0 125 80" fill="none" xmlns="http://www.w3.org/2000/svg">
<path fill-rule="evenodd" clip-rule="evenodd" d="M76.5791 38.6621C67.0877 37.354 58.8499 34.3281 52.0919 29.5929C45.0341 24.6463 36.6874 14.4784 47.8236 10.04L50.8036 9.01036C36.7023 16.5272 61.0567 33.2613 78.6049 33.7891L76.5791 38.6621Z" fill="#1D9BFF"/>
<path d="M89.6541 40.3543C89.1541 40.3543 94.1892 43.0958 94.1892 43.0958C94.1892 43.0958 98.1541 41.1128 98.6541 40.1128C96.1541 42.1128 94.2493 39.9983 93.5207 38.8336C92.389 39.1079 90.7199 40.3543 89.6541 40.3543Z" fill="#FBF221"/>
<path fill-rule="evenodd" clip-rule="evenodd" d="M93.7533 38.2627L93.9445 38.5684C94.2882 39.1178 94.8845 39.8452 95.6403 40.2096C96.0087 40.3872 96.4082 40.4757 96.8403 40.424C97.2731 40.3722 97.7756 40.1753 98.3417 39.7224L99.1013 40.3364C99.0007 40.5376 98.8357 40.725 98.6648 40.8889C98.4877 41.0588 98.2735 41.2324 98.0426 41.4029C97.5805 41.7443 97.0213 42.0959 96.4879 42.4101C95.9528 42.7254 95.4347 43.0082 95.051 43.212C94.859 43.314 94.7001 43.3964 94.589 43.4535C94.5334 43.482 94.4897 43.5042 94.4597 43.5194L94.4253 43.5368L94.4138 43.5425C94.4138 43.5426 94.4129 43.543 94.1892 43.0959C93.9501 43.535 93.9501 43.535 93.95 43.5349L93.8931 43.5039L93.7334 43.4165C93.5962 43.3412 93.4009 43.2338 93.1681 43.1049C92.7027 42.8473 92.0866 42.5033 91.4856 42.1589C90.8866 41.8157 90.295 41.4679 89.8823 41.2039C89.6812 41.0752 89.5016 40.9533 89.385 40.856C89.3546 40.8306 89.3208 40.8006 89.2891 40.7674C89.2646 40.7418 89.2097 40.6822 89.1699 40.5973C89.1348 40.5224 89.0374 40.2431 89.2679 40.0104C89.3559 39.9214 89.4538 39.8865 89.5107 39.8719C89.57 39.8568 89.6213 39.8543 89.6541 39.8543C89.8325 39.8543 90.071 39.8001 90.3736 39.6869C90.6712 39.5757 90.9952 39.4215 91.3391 39.2496C91.4339 39.2022 91.5312 39.1528 91.6302 39.1026C92.2141 38.8064 92.858 38.4797 93.4029 38.3477L93.7533 38.2627ZM94.1892 43.0959L93.95 43.5349L94.1794 43.6598L94.4129 43.543L94.1892 43.0959ZM94.1973 42.5304C94.2987 42.478 94.4296 42.4097 94.582 42.3288C94.9574 42.1294 95.4618 41.854 95.9803 41.5485C96.0559 41.504 96.1316 41.459 96.207 41.4135C95.8475 41.3669 95.5125 41.2582 95.2059 41.1104C94.3663 40.7055 93.7249 40.001 93.3123 39.4213C92.9592 39.552 92.5536 39.7569 92.1036 39.9843C92.0001 40.0366 91.8943 40.09 91.7862 40.1441C91.4625 40.3059 91.1251 40.4682 90.7975 40.5955C91.1419 40.8049 91.5562 41.0469 91.9827 41.2913C92.5779 41.6323 93.1894 41.9737 93.6525 42.2301C93.8745 42.353 94.0621 42.4562 94.1973 42.5304Z" fill="#FBF221"/>
<path fill-rule="evenodd" clip-rule="evenodd" d="M50.9679 50.7307C55.9689 42.5964 58.3288 34.2813 59.4448 26.1332C60.9247 15.3149 56.6115 4.37251 46.9356 10.2876L44.2662 12.0913C59.0459 6.00302 57.0209 34.7953 45.2471 45.934L50.9679 50.7307Z" fill="#FBF221"/>
<path fill-rule="evenodd" clip-rule="evenodd" d="M48.5778 57.4846C48.5778 57.4846 43.9369 62.8471 41.1917 64.032C38.4466 65.2168 30.7069 64.6152 30.7069 64.6152L41.4923 52.5467L48.5778 57.4846Z" fill="#1D9BFF"/>
<path fill-rule="evenodd" clip-rule="evenodd" d="M117.263 18.3269C117.263 18.3269 111.142 14.9034 103.756 17.6581L104.05 22.93C104.05 22.93 112.252 22.346 116.345 23.9247L117.263 18.3269Z" fill="#1D9BFF"/>
<path fill-rule="evenodd" clip-rule="evenodd" d="M84.3735 27.8188C79.3098 27.0667 73.8903 27.4592 68.9583 28.283C66.178 28.7461 64.531 29.3918 64.7128 30.8302C65.0276 33.3028 69.6491 32.3075 70.6128 32.2887C71.3988 32.2754 74.0074 31.8925 75.9672 32.8271C81.2744 35.3441 85.5234 30.5103 84.3735 27.8188Z" fill="#A87065"/>
<path fill-rule="evenodd" clip-rule="evenodd" d="M64.7409 30.981C65.2296 33.2531 69.6708 32.3012 70.6151 32.2782C71.4011 32.265 74.0097 31.882 75.9695 32.8166C76.7019 33.1729 77.4903 33.4009 78.3 33.4907C83.6057 32.2898 85.9465 30.0158 80.3419 29.2658C73.5746 28.367 67.2211 30.1546 64.7409 30.981Z" fill="#BC8779"/>
<path fill-rule="evenodd" clip-rule="evenodd" d="M73.276 36.8238C69.4448 37.2922 63.4833 37.8532 63.3168 40.3756C63.1502 42.898 67.5744 45.3414 74.7767 45.3763C81.9789 45.4113 85.4846 40.8783 85.4846 40.8783C85.4846 40.8783 79.905 37.3337 73.276 36.8238Z" fill="#A87065"/>
<path fill-rule="evenodd" clip-rule="evenodd" d="M86.4011 28.4146C86.4011 28.4146 88.6079 28.5125 92.8121 26.2842C94.5105 25.384 119.022 15.9624 120.5 15L120.5 30L94.1653 38.5298C94.1653 38.5298 81.1665 32.9859 86.4011 28.4146Z" fill="#BC8779"/>
<path fill-rule="evenodd" clip-rule="evenodd" d="M86.4011 28.4145C86.4011 28.4145 88.6079 28.5124 92.8121 26.2841C94.5105 25.3839 119.022 15.9607 120.5 15L120.5 19.5C117.48 20.8324 91.0991 29.2084 89.2128 29.4307C87.9615 29.5636 86.7033 29.6224 85.4448 29.6069C85.6821 29.1508 86.007 28.7457 86.4011 28.4145Z" fill="#A87065"/>
<path fill-rule="evenodd" clip-rule="evenodd" d="M90.1132 28.4459C82.1761 26.776 76.5675 28.0342 73.3679 36.5176C71.8259 40.6069 85.4579 44.6249 94.1092 38.5854C95.1465 37.8518 119.178 29.4689 119.488 28.3327L96.3442 34.318C96.3058 31.9015 94.4557 29.3791 90.1132 28.4459Z" fill="#BC8779"/>
<path fill-rule="evenodd" clip-rule="evenodd" d="M90.1132 28.4459C85.633 27.5032 81.8941 27.4934 78.9134 29.1896C78.9451 29.1964 84.898 29.9338 89.2093 29.4299C90.0239 29.3119 90.8262 29.1213 91.6064 28.8603C91.1175 28.6921 90.6188 28.5537 90.1132 28.4459Z" fill="#A87065"/>
<path fill-rule="evenodd" clip-rule="evenodd" d="M92.0288 39.8077C90.0938 41.3692 87.4527 43.6204 85.4602 44.6144C84.4811 45.1042 78.8639 46.9722 78.3045 46.8897C77.4139 46.7576 71.2019 46.4532 70.5827 45.0741C69.9635 43.6949 74.7711 43.8716 76.8268 43.8947C79.6957 42.6817 90.1159 36.8615 92.0288 39.8077Z" fill="#BC8779"/>
<path fill-rule="evenodd" clip-rule="evenodd" d="M53.3327 37.5197C55.8667 36.053 59.8102 34.6821 60.8343 36.2715C61.2291 36.8861 60.6612 37.5911 60.6612 37.5911L55.4699 38.8497L53.3327 37.5197Z" fill="#E4B09E"/>
<path fill-rule="evenodd" clip-rule="evenodd" d="M56.4486 37.6896C56.4486 37.6896 63.4881 35.1695 64.8179 35.1914C66.1478 35.2133 67.4002 37.1414 67.4002 37.1414L59.5533 40.8202C59.5533 40.8202 57.398 39.7353 56.4486 37.6896Z" fill="#E4B09E"/>
<path fill-rule="evenodd" clip-rule="evenodd" d="M57.6196 38.038C58.1233 37.7916 66.3797 36.4703 70.1872 35.9583C71.4788 35.7833 73.9035 35.9704 76.1512 37.98L62.3205 41.7443C62.3205 41.7443 58.5832 39.7205 57.6196 38.038Z" fill="#E4B09E"/>
<path fill-rule="evenodd" clip-rule="evenodd" d="M65.1117 47.5926L72.888 42.514C75.7739 42.0134 78.1938 41.5933 81.1081 41.3607C82.5715 41.2412 83.3387 40.6598 83.0399 39.5166C82.8444 38.7711 81.0093 38.314 79.9816 38.1102C77.5809 37.6334 67.4693 38.0463 62.3045 40.2282C60.8214 42.14 61.0715 48.3309 65.1117 47.5926Z" fill="#E4B09E"/>
<path fill-rule="evenodd" clip-rule="evenodd" d="M65.1117 47.5926L72.888 42.514C75.7738 42.0134 78.1938 41.5933 81.1081 41.3607C82.1446 41.2771 82.8325 40.9606 83.0381 40.3751C83.0381 40.3751 75.4952 40.5046 72.4675 41.0405C69.4398 41.5764 65.885 44.3974 64.4409 45.5503C64.0383 45.8735 63.4577 46.4165 62.7901 47.056C63.357 47.5374 64.1202 47.7739 65.1117 47.5926Z" fill="#DB9080"/>
<path fill-rule="evenodd" clip-rule="evenodd" d="M53.5834 56.6088L14.5968 72.1721L15.9578 63.469L17.7134 53.1956L43.843 47.1231C48.6589 46.4701 54.7356 47.4173 53.5834 56.6088Z" fill="#E4B09E"/>
<path fill-rule="evenodd" clip-rule="evenodd" d="M53.5834 56.6088L14.5968 72.1721L15.9578 63.469C25.8255 60.9613 48.543 54.8729 52.597 53.4417C52.6761 54.3854 53.7352 55.3963 53.5834 56.6088Z" fill="#DB9080"/>
<path fill-rule="evenodd" clip-rule="evenodd" d="M43.8422 47.1266C43.8422 47.1266 51.7728 38.8509 53.2619 37.5667C54.7509 36.2825 66.7091 40.6108 66.2376 45.4882C65.766 50.3657 58.4329 54.5164 52.3322 56.538C46.2314 58.5596 41.6204 50.602 43.8422 47.1266Z" fill="#E4B09E"/>
<path fill-rule="evenodd" clip-rule="evenodd" d="M66.1059 44.2602C66.23 44.6643 66.4986 42.8434 66.2428 45.4893C66.0817 47.1448 64.6387 50.9461 60.5266 53.7346C58.0637 55.3998 53.3052 56.4333 51.0202 57.1902C48.9327 57.8835 46.1008 56.8502 44.576 55.7826C50.2765 53.929 56.1386 52.7311 57.4855 51.8575C58.8325 50.984 62.9986 46.7036 64.441 45.5503C64.8437 45.218 65.4241 44.7611 66.1059 44.2602Z" fill="#DB9080"/>
<path fill-rule="evenodd" clip-rule="evenodd" d="M56.4923 37.8108C56.4603 37.8221 56.4252 37.8203 56.3945 37.8058C56.3639 37.7913 56.3402 37.7652 56.3288 37.7334C56.3175 37.7015 56.3192 37.6665 56.3337 37.6359C56.3483 37.6054 56.3744 37.5819 56.4063 37.5706C56.4063 37.5706 58.5165 36.8144 60.6432 36.135C60.6596 36.1291 60.6769 36.1266 60.6943 36.1277C60.7116 36.1287 60.7286 36.1333 60.7441 36.1411C60.7597 36.1489 60.7734 36.1598 60.7846 36.1731C60.7957 36.1864 60.8041 36.2019 60.809 36.2185C60.8147 36.2348 60.817 36.2521 60.8159 36.2693C60.8147 36.2865 60.8101 36.3033 60.8023 36.3187C60.7945 36.3341 60.7837 36.3477 60.7705 36.3589C60.7574 36.37 60.742 36.3784 60.7255 36.3836C58.5965 37.0569 56.4983 37.8084 56.4923 37.8108Z" fill="#CC786A"/>
<path fill-rule="evenodd" clip-rule="evenodd" d="M58.7402 38.9431C58.7252 38.9505 58.7087 38.9548 58.692 38.9558C58.6752 38.9569 58.6584 38.9546 58.6425 38.9491C58.6266 38.9436 58.6119 38.9351 58.5993 38.9239C58.5867 38.9128 58.5765 38.8993 58.5692 38.8842C58.5614 38.8693 58.5567 38.8529 58.5553 38.8362C58.554 38.8194 58.5561 38.8026 58.5614 38.7867C58.5667 38.7707 58.5752 38.756 58.5864 38.7434C58.5975 38.7309 58.6111 38.7206 58.6263 38.7134C59.9448 38.1372 61.3002 37.6484 62.6836 37.2499C63.9962 36.8593 65.3335 36.5562 66.6868 36.3425C66.7204 36.3374 66.7546 36.3458 66.782 36.3658C66.8094 36.3858 66.8277 36.4158 66.8329 36.4492C66.8381 36.4826 66.8298 36.5167 66.8097 36.544C66.7897 36.5713 66.7596 36.5895 66.7261 36.5946C65.3842 36.805 64.0583 37.1058 62.7575 37.4948C61.3875 37.8881 60.0454 38.3719 58.7402 38.9431Z" fill="#CC786A"/>
<path fill-rule="evenodd" clip-rule="evenodd" d="M75.8317 37.7571C75.8484 37.7563 75.8651 37.7588 75.8809 37.7646C75.8966 37.7703 75.911 37.7791 75.9233 37.7905C75.9355 37.8018 75.9454 37.8155 75.9523 37.8307C75.9592 37.8459 75.963 37.8623 75.9635 37.8789C75.964 37.8957 75.9612 37.9123 75.9552 37.9279C75.9493 37.9435 75.9403 37.9578 75.9288 37.9699C75.9173 37.9821 75.9035 37.9918 75.8882 37.9987C75.8729 38.0055 75.8564 38.0092 75.8396 38.0097C73.3185 38.1108 70.8073 38.3805 68.323 38.8169C65.8787 39.239 63.6835 39.7846 62.3542 40.347C62.3228 40.3601 62.2875 40.3603 62.256 40.3475C62.2244 40.3346 62.1993 40.3099 62.1861 40.2786C62.1728 40.2473 62.1726 40.2121 62.1854 40.1807C62.1983 40.1493 62.2231 40.1243 62.2544 40.1112C63.5997 39.543 65.8161 38.9929 68.2869 38.5674C70.7805 38.1288 73.3011 37.8581 75.8317 37.7571Z" fill="#CC786A"/>
<path fill-rule="evenodd" clip-rule="evenodd" d="M70.666 44.9438C70.6704 44.9598 70.6716 44.9766 70.6694 44.9931C70.6673 45.0096 70.6618 45.0255 70.6534 45.0399C70.645 45.0543 70.6338 45.0669 70.6204 45.0769C70.6071 45.0869 70.5919 45.0941 70.5757 45.0982C70.5588 45.1037 70.5411 45.1056 70.5235 45.1038C70.5059 45.1021 70.4888 45.0967 70.4734 45.088C70.458 45.0793 70.4446 45.0676 70.4339 45.0534C70.4233 45.0393 70.4158 45.0232 70.4118 45.006C70.2846 44.5225 70.7024 44.2227 71.4038 44.0392C72.6681 43.71 74.9203 43.7426 76.3678 43.7644L76.7948 43.7706C77.1796 43.6065 77.706 43.365 78.3223 43.0825C79.6243 42.4849 81.3325 41.7004 83.1006 41.0131C83.1323 41.0008 83.1676 41.0015 83.1988 41.0151C83.23 41.0287 83.2545 41.0541 83.2669 41.0857C83.2793 41.1173 83.2787 41.1525 83.2651 41.1835C83.2515 41.2146 83.226 41.239 83.1943 41.2513C81.4426 41.9312 79.7308 42.7149 78.4284 43.3142C77.8157 43.5975 77.284 43.8379 76.8769 44.0117C76.8585 44.0214 76.8379 44.0258 76.8171 44.0245L76.3644 44.0182C74.9296 43.9974 72.7007 43.9588 71.4682 44.2857C70.922 44.4314 70.5863 44.6408 70.666 44.9438Z" fill="#915850"/>
<path fill-rule="evenodd" clip-rule="evenodd" d="M78.8492 29.0787C78.8789 29.0608 78.9145 29.0554 78.9483 29.0638C78.982 29.0721 79.011 29.0934 79.029 29.123C79.047 29.1527 79.0524 29.1882 79.0441 29.2217C79.0358 29.2553 79.0145 29.2842 78.9848 29.3021C78.319 29.6824 77.7011 30.1402 77.1439 30.6659C76.5362 31.243 75.9918 31.8828 75.5199 32.5748C75.511 32.5897 75.4991 32.6026 75.4849 32.6128C75.4707 32.6229 75.4546 32.6301 75.4376 32.6338C75.4205 32.6374 75.4029 32.6376 75.3857 32.6342C75.3686 32.6308 75.3524 32.624 75.338 32.6141C75.3236 32.6042 75.3114 32.5915 75.3022 32.5767C75.2929 32.562 75.2868 32.5455 75.2842 32.5283C75.2816 32.5111 75.2826 32.4935 75.2871 32.4767C75.2915 32.4599 75.2994 32.4442 75.3103 32.4306C75.7919 31.7232 76.348 31.0693 76.9691 30.4798C77.5379 29.9403 78.169 29.47 78.8492 29.0787Z" fill="#915850"/>
<path fill-rule="evenodd" clip-rule="evenodd" d="M80.1573 37.0933C80.1446 37.1044 80.1298 37.1129 80.1138 37.1181C80.0977 37.1234 80.0807 37.1254 80.0639 37.124C80.047 37.1225 80.0306 37.1177 80.0157 37.1099C80.0007 37.102 79.9875 37.0912 79.9768 37.0781C79.9659 37.0653 79.9576 37.0505 79.9524 37.0345C79.9472 37.0185 79.9453 37.0017 79.9467 36.985C79.9481 36.9682 79.9528 36.952 79.9605 36.9371C79.9683 36.9222 79.9789 36.909 79.9918 36.8982C80.0028 36.8896 84.0154 33.4643 89.3125 34.1405C89.3291 34.1425 89.3453 34.1478 89.3599 34.1561C89.3746 34.1643 89.3875 34.1754 89.3978 34.1886C89.4082 34.2018 89.4159 34.2169 89.4204 34.2331C89.4249 34.2492 89.4262 34.2661 89.4242 34.2827C89.4221 34.2994 89.4168 34.3154 89.4086 34.33C89.4003 34.3446 89.3893 34.3574 89.376 34.3677C89.3628 34.3781 89.3476 34.3857 89.3314 34.3901C89.3152 34.3946 89.2983 34.3959 89.2816 34.3938C84.0971 33.7328 80.1684 37.0847 80.1573 37.0933Z" fill="#915850"/>
<path fill-rule="evenodd" clip-rule="evenodd" d="M46.1676 47.3308C46.135 47.3218 46.1072 47.3002 46.0905 47.2708C46.0737 47.2414 46.0693 47.2066 46.0783 47.1741C46.0873 47.1416 46.1089 47.1139 46.1384 47.0973C46.1678 47.0806 46.2027 47.0763 46.2354 47.0854C47.5923 47.4783 48.8618 48.1256 49.9758 48.9927C50.9538 49.743 51.7274 50.7256 52.2258 51.8506C52.2327 51.8661 52.2363 51.8828 52.2366 51.8997C52.2369 51.9166 52.2338 51.9334 52.2275 51.9491C52.2212 51.9648 52.2118 51.9791 52.1999 51.9911C52.188 52.0031 52.1738 52.0126 52.1581 52.0191C52.1265 52.0321 52.091 52.0321 52.0594 52.0191C52.0278 52.0061 52.0026 51.9811 51.9893 51.9496C51.508 50.864 50.7601 49.9163 49.8146 49.1941C48.729 48.3471 47.4911 47.7146 46.1676 47.3308Z" fill="#CC786A"/>
<path d="M25 -8H25.3777V7.98077V28.5662C25.5307 28.7345 25.6072 28.8952 25.6072 29.0482V29.2318C25.6072 29.3848 25.5307 29.553 25.3777 29.7366V29.9202H26.4564C29.9293 29.9202 33.0428 31.2207 35.7967 33.8216C37.2348 35.4127 38.1911 36.8738 38.6653 38.2049C39.5068 40.4539 39.9276 42.4811 39.9276 44.2864C39.9734 44.2864 39.9964 44.4088 39.9964 44.6536C39.9964 50.4368 37.9233 54.7895 33.7772 57.7117C31.2833 59.2111 28.6824 59.9608 25.9744 59.9608C21.0786 59.9608 17.2231 58.0942 14.408 54.3611C13.1535 52.6323 12.2737 50.215 11.7689 47.1092C11.7689 47.048 11.7536 46.7573 11.723 46.2371C11.723 46.2065 11.7383 46.0841 11.7689 45.8699C11.6924 45.5792 11.6541 45.2809 11.6541 44.9749C11.6541 44.7454 11.6924 44.5159 11.7689 44.2864C11.7689 44.2558 11.7536 44.1334 11.723 43.9193C11.723 42.6647 12.1054 40.8211 12.8704 38.3885C13.3141 37.3175 14.0255 36.0936 15.0047 34.7166C16.7182 32.8807 18.3017 31.6873 19.7552 31.1365C20.3366 30.7694 21.5758 30.4022 23.473 30.035C24.1614 29.9585 24.5669 29.9202 24.6893 29.9202V29.8514C24.3833 29.8514 24.1997 29.6066 24.1385 29.117C24.2303 28.7192 24.3756 28.5203 24.5745 28.5203C24.5745 27.6483 24.2532 26.8756 23.6107 26.2025C23.5342 26.3555 23.3888 26.4319 23.1746 26.4319H22.8074C22.4861 26.2637 22.3255 26.0418 22.3255 25.7664V25.6517C22.3255 25.3151 22.5473 25.0932 22.991 24.9861H23.1058C23.4883 24.9861 23.7331 25.2462 23.8401 25.7664C24.0696 25.7664 24.3374 26.1107 24.6434 26.7991H24.6893V7.98077C24.6893 7.98077 24.5 -8 25 -8ZM24.0237 32.4676C24.0237 33.0643 24.3909 33.4085 25.1253 33.5003C25.7373 33.3779 26.0433 33.0184 26.0433 32.4217C25.8903 31.8403 25.6684 31.5496 25.3777 31.5496V31.8709C25.3777 31.9321 25.2936 32.0086 25.1253 32.1004H24.9417C24.8805 32.1004 24.7964 32.0239 24.6893 31.8709V31.5496H24.6434C24.2303 31.7791 24.0237 32.0851 24.0237 32.4676ZM17.9422 44.9061C17.9728 46.8185 18.3323 48.6238 19.0208 50.3221C19.5563 51.4542 20.2524 52.3952 21.1092 53.1448C22.5932 54.1546 24.0314 54.6595 25.4236 54.6595H26.4564C27.6497 54.6595 29.0114 54.1546 30.5413 53.1448C31.6735 52.0586 32.492 50.8346 32.9969 49.473C33.3182 48.5244 33.5553 47.0633 33.7083 45.0897C33.6165 43.6209 33.3947 42.1369 33.0428 40.6375C32.5991 39.4442 32.056 38.4267 31.4134 37.5853C29.9905 35.9635 28.1011 35.1527 25.7449 35.1527C23.1287 35.1527 21.0709 36.2695 19.5716 38.5032C18.8372 39.7731 18.3553 41.2189 18.1258 42.8406C18.0799 43.6362 18.0187 44.3247 17.9422 44.9061Z" fill="white"/>
<path d="M106.362 39.8016C106.485 40.4901 106.867 40.8343 107.51 40.8343C107.999 40.8343 108.313 40.4901 108.451 39.8016C108.451 39.4191 108.259 39.1055 107.877 38.8607H107.762C107.762 39.0749 107.693 39.182 107.556 39.182H107.303C107.273 39.182 107.165 39.0749 106.982 38.8607C106.569 39.0902 106.362 39.4038 106.362 39.8016ZM119.581 39.8016C119.703 40.4901 120.086 40.8343 120.728 40.8343C121.218 40.8343 121.532 40.4901 121.669 39.8016C121.669 39.4191 121.478 39.1055 121.096 38.8607H120.981C120.981 39.0749 120.912 39.182 120.774 39.182H120.522C120.491 39.182 120.384 39.0749 120.201 38.8607C119.787 39.0902 119.581 39.4038 119.581 39.8016ZM110.493 50.5189V57.9544C110.493 58.8877 110.111 59.3543 109.346 59.3543H105.972C105.039 59.3543 104.572 58.9336 104.572 58.0921V38.723C104.572 38.0039 105.016 37.6444 105.903 37.6444H106.408V37.3919C106.408 37.1471 106.561 36.91 106.867 36.6805C106.867 36.1297 106.676 35.8543 106.293 35.8543C105.743 35.8543 105.467 35.6248 105.467 35.1658V35.0282C105.467 34.6763 105.697 34.4468 106.156 34.3397H106.293C106.752 34.4009 106.982 34.6304 106.982 35.0282V35.1658L106.936 35.4871L107.051 35.533V34.202L106.982 8.86604C106.982 8.91505 107 -18 107.316 -18.5C107.633 -19.0001 107 -18.5 107.5 -18.5C108 -18.5 107.693 8.86604 107.693 8.86604L107.762 34.202V36.887C107.884 37.04 107.946 37.1854 107.946 37.3231V37.6444H109.346C110.111 37.6444 110.493 38.0651 110.493 38.9066V46.3421H117.814L117.791 38.723C117.791 38.0039 118.235 37.6444 119.122 37.6444H119.627V37.3919C119.627 37.1471 119.78 36.91 120.086 36.6805C120.086 36.1297 119.895 35.8543 119.512 35.8543C118.961 35.8543 118.686 35.6248 118.686 35.1658V35.0282C118.686 34.6763 118.915 34.4468 119.374 34.3397H119.512C119.971 34.4009 120.201 34.6304 120.201 35.0282V35.1658L120.155 35.4871L120.269 35.533V34.202C120.269 34.202 120.201 8.92724 120.201 8.86604C120.201 8.80484 120 -18.5 120.5 -18.5C121 -18.5 120.367 -18.5 120.684 -18.5C121 -18.5 120.912 8.86604 120.912 8.86604L120.981 34.202V36.887C121.103 37.04 121.164 37.1854 121.164 37.3231V37.6444H122.564C123.329 37.6444 123.712 38.0651 123.712 38.9066V57.9544C123.712 58.8877 123.329 59.3543 122.564 59.3543H119.191C118.258 59.3543 117.791 58.9336 117.791 58.0921V50.5189H110.493Z" fill="white"/>
<path fill-rule="evenodd" clip-rule="evenodd" d="M103.756 17.6581C103.756 17.6581 101.846 18.2799 100.715 21.1122C99.5847 23.9444 105.059 28.3217 102.654 34.3543C100.654 42.3543 90.1541 41.3543 90.1541 41.3543C90.1541 41.3543 94.654 45.4777 98.6541 44.8543C102.046 44.3257 105.798 40.2972 107.028 37.6347C108.258 34.9723 109.531 29.823 107.696 24.3407C105.861 18.8584 106.654 16.8543 106.654 16.8543C104.154 17.3543 103.756 17.6581 103.756 17.6581Z" fill="#FBF221"/>
<path fill-rule="evenodd" clip-rule="evenodd" d="M18.2744 37.1642C18.2744 37.1642 23.241 37.89 26.063 44.7265C28.1332 49.734 32.8303 60.8309 41.191 64.0354C41.191 64.0354 37.6027 66.7412 30.3784 64.5478C23.1541 62.3543 20.6608 38.4394 17.253 42.3543C16.7411 42.9424 15.6481 44.6291 15.7397 43.6567C15.8332 42.665 15.9548 42.111 16.2385 41.1564C16.5381 40.1483 16.744 39.6576 17.253 38.6595C17.762 37.6615 18.2744 37.1642 18.2744 37.1642Z" fill="#FBF221"/>
<path d="M71.5355 41.7161C72.2546 41.609 72.6141 41.2648 72.6141 40.6834C72.6141 40.3162 72.4152 40.0179 72.0175 39.7884H71.9486V40.0867C71.8568 40.255 71.7803 40.3392 71.7191 40.3392H71.5355C71.3672 40.2321 71.2831 40.1479 71.2831 40.0867V39.7884C71.0077 39.7884 70.7935 40.0714 70.6405 40.6375C70.6405 41.2342 70.9388 41.5937 71.5355 41.7161ZM84.8461 41.7161C85.5651 41.609 85.9247 41.2648 85.9247 40.6834C85.9247 40.3162 85.7258 40.0179 85.328 39.7884H85.2592V40.0867C85.1674 40.255 85.0909 40.3392 85.0297 40.3392H84.8461C84.6778 40.2321 84.5936 40.1479 84.5936 40.0867V39.7884C84.3182 39.7884 84.104 40.0714 83.951 40.6375C83.951 41.2342 84.2494 41.5937 84.8461 41.7161ZM71.2372 38.9163V38.8475C71.0383 38.6333 70.9388 38.4497 70.9388 38.2967V38.1819C70.9388 38.0137 71.0383 37.8148 71.2372 37.5853V7.75128C71.2372 7.75128 71 -13.5 71.5 -13.5C71.5 -13.5 71.3672 -13.5 71.6836 -13.5C72 -13.5 71.9027 7.75128 71.9027 7.75128V35.8411H71.9486C71.9486 35.5963 72.2087 35.2521 72.7289 34.8084C72.8513 34.3341 73.0961 34.097 73.4633 34.097H73.5092C73.9222 34.097 74.167 34.3571 74.2435 34.8773C74.1211 35.3209 73.8993 35.5428 73.578 35.5428H73.3944C73.2567 35.5428 73.0961 35.4586 72.9125 35.2903C72.3158 35.9635 72.0175 36.6673 72.0175 37.4017V37.5164C72.2622 37.7612 72.3846 37.9601 72.3846 38.1131V38.2967C72.3846 38.465 72.2622 38.6715 72.0175 38.9163C72.5988 38.8857 72.989 38.8704 73.1879 38.8704C73.9834 38.8704 74.5036 39.0923 74.7484 39.5359C76.1254 44.7378 77.1504 48.5091 77.8236 50.8499C77.9766 51.1559 78.1219 51.3395 78.2596 51.4007H78.4432C78.688 51.4007 79.1241 49.9931 79.7513 47.178C79.9502 46.612 80.4934 44.4471 81.3807 40.6834C81.5796 39.5206 82.0845 38.9393 82.8954 38.9393H84.5477V38.8475C84.3488 38.6333 84.2494 38.4497 84.2494 38.2967V38.1819C84.2494 38.0137 84.5477 10.7466 84.5477 10.7466V-19.0874C84.5477 -19.1486 84.6242 -19.2251 84.7772 -19.3169H84.9608C85.022 -19.3169 85.2133 7.75128 85.2133 7.75128V35.8411H85.2592C85.2592 35.5963 85.5192 35.2521 86.0394 34.8084C86.1618 34.3341 86.4066 34.097 86.7738 34.097H86.8197C87.2328 34.097 87.4776 34.3571 87.5541 34.8773C87.4317 35.3209 87.2098 35.5428 86.8885 35.5428H86.705C86.5673 35.5428 86.4066 35.4586 86.223 35.2903C85.6263 35.9635 85.328 36.6673 85.328 37.4017V37.5164C85.5728 37.7612 85.6952 37.9601 85.6952 38.1131V38.2967C85.6952 38.465 85.5651 38.6792 85.3051 38.9393H86.6132C87.3475 38.9393 87.8142 39.2147 88.0131 39.7654C91.7002 51.4236 93.6662 57.6888 93.911 58.5608V58.8133C93.911 59.257 93.4291 59.4788 92.4652 59.4788H90.1703C88.9769 59.4788 88.3802 59.3335 88.3802 59.0428C88.1967 59.0428 87.9136 58.2013 87.5311 56.5184C87.2863 55.7993 86.4449 52.7241 85.0067 47.2928C84.8843 47.0174 84.739 46.8414 84.5707 46.7649H84.3871C84.127 46.7649 83.7063 48.1266 83.1249 50.8499C82.3599 53.6803 81.7173 56.2736 81.1971 58.6297C81.0288 59.1958 80.4475 59.4788 79.453 59.4788H78.7875L77.9843 59.5018C77.9843 59.4865 77.9919 59.4788 78.0072 59.4788H77.4105C76.3549 59.4788 75.7123 59.3182 75.4828 58.9969C75.2839 58.5532 74.7408 56.5184 73.8534 52.8924C73.0884 49.6336 72.5453 47.6523 72.224 46.9485L72.0404 46.8108H71.9945C71.5967 46.8108 71.2525 47.5605 70.9618 49.0599C69.4012 54.6901 68.5368 57.8571 68.3685 58.5608C68.139 58.9892 67.9172 59.234 67.703 59.2952C67.4123 59.4176 66.9763 59.4788 66.3949 59.4788H63.8016C63.0367 59.4788 62.6542 59.1958 62.6542 58.6297C63.1744 56.8396 65.0409 50.8576 68.2538 40.6834C68.4986 39.4748 69.0417 38.8704 69.8832 38.8704C70.2657 38.8704 70.717 38.8857 71.2372 38.9163Z" fill="white"/>
<path fill-rule="evenodd" clip-rule="evenodd" d="M63.8839 49.3948L67.1376 49.3949C69.6155 49.3957 70.926 48.4099 72.9778 48.6556C74.5902 48.8503 77.5328 50.5449 75.0929 51.4313C73.6826 51.9432 70.7468 53.1509 69.8049 53.4858C68.7015 53.8791 66.1386 54.5099 62.2406 55.7807C58.3427 57.0515 52.3328 56.5436 52.3328 56.5436C52.3328 56.5436 52.6761 50.133 63.8839 49.3948Z" fill="#DB9080"/>
<path d="M50.9666 30.8426V30.907H50.8377V30.8426H50.9666ZM53.781 30.0047C53.781 30.5776 54.1391 30.9142 54.8552 31.0145C55.4425 30.8999 55.7361 30.549 55.7361 29.9617C55.5929 29.4031 55.378 29.1238 55.0916 29.1238V29.4246C55.0916 29.4819 55.0128 29.5607 54.8552 29.6609H54.6834C54.6118 29.6609 54.533 29.5822 54.447 29.4246V29.1238H54.3826C53.9816 29.353 53.781 29.6466 53.781 30.0047ZM47.2927 48.7176C47.6222 51.353 48.6391 53.3296 50.3435 54.6473C51.3032 55.1629 52.1554 55.3777 52.9002 55.2918L53.6092 55.2059C54.7693 55.0483 55.7934 54.3393 56.6814 53.0789C57.2687 52.0763 57.462 50.7944 57.2615 49.2332C56.8318 45.7814 55.464 43.5971 53.158 42.6805C52.6567 42.5802 52.0336 42.5373 51.2888 42.5516C50.3006 42.6805 49.3266 43.1818 48.367 44.0555C47.393 45.1727 47.0349 46.7267 47.2927 48.7176ZM54.3396 28.1356C54.1105 27.8921 53.9959 27.6915 53.9959 27.534V27.4266C54.0818 26.9969 54.2608 26.782 54.533 26.782V10.2606C54.533 10.2033 54.5 -21 54.8281 -21H55L55.1775 10.2606V24.6551C55.464 24.4259 55.7433 24.0679 56.0154 23.5809C56.1586 23.4663 56.2947 23.409 56.4236 23.409H56.531C56.975 23.4663 57.197 23.6811 57.197 24.0535V24.3543C57.0252 24.6694 56.8247 24.827 56.5955 24.827H56.4236C56.2804 24.827 56.1013 24.7482 55.8865 24.5906C55.4138 25.1922 55.1775 25.6863 55.1775 26.0731V26.8895C55.3351 27.0613 55.4138 27.2189 55.4138 27.3621V27.534C55.4138 27.6772 55.3351 27.8348 55.1775 28.0067V28.157C56.1515 28.0138 56.7745 27.9708 57.0467 28.0281L57.197 28.0711C57.7127 28.243 57.9132 28.6583 57.7986 29.3172C57.3689 31.6375 55.7218 33.6212 52.8572 35.2684C52.3989 35.4832 51.697 35.6408 50.7517 35.741C50.4939 35.7983 50.186 35.8628 49.8279 35.9344C49.3409 36.049 48.6749 36.2638 47.8299 36.5789C46.6411 37.4096 46.1612 38.4337 46.3904 39.6512V40.1238C47.7941 39.2215 49.255 38.6772 50.7732 38.491L51.4177 38.4051C53.9386 38.09 56.2302 38.6486 58.2927 40.0809C59.8253 41.3413 60.8995 42.6948 61.5154 44.1414C62.031 45.3159 62.3318 46.2827 62.4177 47.0418C62.561 47.7436 62.6469 48.2091 62.6756 48.4383C63.0909 51.8185 61.9093 54.6831 59.1306 57.032C57.6554 58.0919 56.5668 58.6649 55.865 58.7508C55.5642 58.9227 54.8051 59.1303 53.5877 59.3738C49.076 59.9468 45.6886 58.3139 43.4256 54.4754C42.6378 52.9858 42.1365 51.3602 41.9217 49.5984L41.8787 49.2332C41.8787 49.1759 41.8858 49.1186 41.9002 49.0613C41.5421 45.3374 41.3487 43.3465 41.3201 43.0887C41.1625 41.3126 41.1267 39.5724 41.2127 37.868C41.714 35.605 43.1677 33.9149 45.574 32.7977L45.7674 32.7117C46.7127 32.2391 47.6007 31.9383 48.4314 31.8094C49.921 31.5945 50.9594 31.1362 51.5467 30.4344C52.0909 29.3172 52.5349 28.687 52.8787 28.5438C53.423 28.4435 53.9099 28.3576 54.3396 28.2859V28.1356Z" fill="white"/>
<path d="M100.747 37.3783V59.3543H97.1391V37.3783H100.747ZM98.9841 29.1373C99.5307 29.1373 100.009 29.3286 100.419 29.7113C100.856 30.0666 101.075 30.6406 101.075 31.4333C101.075 32.1986 100.856 32.7726 100.419 33.1553C100.009 33.538 99.5307 33.7293 98.9841 33.7293C98.3827 33.7293 97.8771 33.538 97.4671 33.1553C97.0571 32.7726 96.8521 32.1986 96.8521 31.4333C96.8521 30.6406 97.0571 30.0666 97.4671 29.7113C97.8771 29.3286 98.3827 29.1373 98.9841 29.1373Z" fill="white"/>
<path fill-rule="evenodd" clip-rule="evenodd" d="M19.2427 34.2381C19.6757 33.9654 20.3589 33.7068 21.1284 33.9633L20.1797 36.8094C20.3605 36.8696 20.5313 36.8678 20.6597 36.8416C20.7761 36.8178 20.8381 36.7787 20.8412 36.7767L20.8412 36.7767C20.8382 36.7789 20.8099 36.7987 20.7581 36.8496C20.7015 36.9052 20.6295 36.9854 20.5441 37.0955C20.1866 37.5563 19.7574 38.3255 19.3304 39.3275C18.4795 41.3246 17.7829 43.8991 17.651 45.9506L14.6572 45.758C14.8156 43.2941 15.619 40.3847 16.5705 38.1516C17.0448 37.0386 17.5923 36.0061 18.1738 35.2566C18.46 34.8878 18.8151 34.5073 19.2427 34.2381Z" fill="white"/>
<path d="M19 55C19 55.5523 18.5523 56 18 56C17.4477 56 17 55.5523 17 55C17 54.4477 17.4477 54 18 54C18.5523 54 19 54.4477 19 55Z" fill="#253858"/>
<path d="M17.5 57.75C17.5 58.1642 17.1642 58.5 16.75 58.5C16.3358 58.5 16 58.1642 16 57.75C16 57.3358 16.3358 57 16.75 57C17.1642 57 17.5 57.3358 17.5 57.75Z" fill="white"/>
<path d="M19.5 60.75C19.5 61.1642 19.1642 61.5 18.75 61.5C18.3358 61.5 18 61.1642 18 60.75C18 60.3358 18.3358 60 18.75 60C19.1642 60 19.5 60.3358 19.5 60.75Z" fill="white"/>
<path fill-rule="evenodd" clip-rule="evenodd" d="M19.0768 60.8153L19 61C18.9232 61.1847 18.9232 61.1847 18.9231 61.1847L18.9216 61.184L18.9176 61.1823L18.9032 61.1762C18.8908 61.1709 18.8728 61.1631 18.85 61.1529C18.8044 61.1326 18.7392 61.1028 18.6598 61.0644C18.5014 60.9879 18.2853 60.8766 18.0551 60.7379C17.6061 60.4675 17.0601 60.0675 16.8211 59.5895C16.5836 59.1144 16.5886 58.5666 16.6434 58.1569C16.6712 57.949 16.7129 57.7693 16.7476 57.6414C16.765 57.5773 16.7807 57.5259 16.7923 57.49C16.7981 57.472 16.8029 57.4579 16.8063 57.448L16.8103 57.4364L16.8115 57.4331L16.8119 57.432C16.8119 57.4319 16.8121 57.4314 17 57.5L17.1879 57.5685L17.1872 57.5703L17.1844 57.5784C17.1818 57.5858 17.1779 57.5974 17.173 57.6127C17.1632 57.6433 17.1492 57.6887 17.1336 57.7462C17.1024 57.8613 17.0649 58.0233 17.0399 58.2099C16.9892 58.5891 16.9942 59.0413 17.1789 59.4106C17.362 59.7769 17.816 60.1269 18.2615 60.3953C18.4785 60.5261 18.6833 60.6315 18.8339 60.7043C18.909 60.7406 18.9704 60.7686 19.0127 60.7875C19.0338 60.7969 19.0502 60.804 19.0611 60.8087L19.0733 60.8139L19.0768 60.8153Z" fill="white"/>
<path fill-rule="evenodd" clip-rule="evenodd" d="M17.6019 55.1652C17.7869 55.2215 17.8911 55.417 17.8348 55.602L17.0976 58.0229L16.428 57.819L17.1652 55.3981C17.2215 55.2131 17.417 55.1089 17.6019 55.1652Z" fill="white"/>
<path d="M16.9999 56.5L13 80.5" stroke="white" stroke-width="0.6"/>
<path d="M45.401 70.433C44.945 70.883 44.387 71.108 43.727 71.108C43.067 71.108 42.506 70.883 42.044 70.433C41.588 69.977 41.36 69.416 41.36 68.75C41.36 68.084 41.588 67.526 42.044 67.076C42.506 66.62 43.067 66.392 43.727 66.392C44.387 66.392 44.945 66.62 45.401 67.076C45.863 67.526 46.094 68.084 46.094 68.75C46.094 69.416 45.863 69.977 45.401 70.433ZM42.467 70.019C42.809 70.361 43.229 70.532 43.727 70.532C44.225 70.532 44.645 70.361 44.987 70.019C45.329 69.671 45.5 69.248 45.5 68.75C45.5 68.252 45.329 67.832 44.987 67.49C44.645 67.142 44.225 66.968 43.727 66.968C43.229 66.968 42.809 67.142 42.467 67.49C42.125 67.832 41.954 68.252 41.954 68.75C41.954 69.248 42.125 69.671 42.467 70.019ZM49.086 71.108C48.438 71.108 47.898 70.895 47.466 70.469C47.034 70.037 46.818 69.479 46.818 68.795C46.818 68.027 46.932 67.439 47.16 67.031C47.388 66.617 47.85 66.242 48.546 65.906C48.678 65.84 48.852 65.762 49.068 65.672C49.29 65.582 49.455 65.51 49.563 65.456C49.677 65.402 49.8 65.333 49.932 65.249C50.064 65.159 50.163 65.06 50.229 64.952C50.295 64.844 50.337 64.715 50.355 64.565L50.823 64.835C50.799 64.979 50.751 65.114 50.679 65.24C50.607 65.366 50.532 65.468 50.454 65.546C50.382 65.624 50.265 65.711 50.103 65.807C49.947 65.897 49.824 65.963 49.734 66.005C49.65 66.041 49.5 66.104 49.284 66.194C49.074 66.284 48.933 66.344 48.861 66.374C48.441 66.554 48.132 66.743 47.934 66.941C47.736 67.133 47.595 67.385 47.511 67.697C47.715 67.427 47.973 67.229 48.285 67.103C48.603 66.971 48.912 66.905 49.212 66.905C49.812 66.905 50.307 67.103 50.697 67.499C51.093 67.889 51.291 68.39 51.291 69.002C51.291 69.608 51.081 70.112 50.661 70.514C50.247 70.91 49.722 71.108 49.086 71.108ZM49.086 70.514C49.554 70.514 49.938 70.373 50.238 70.091C50.544 69.803 50.697 69.44 50.697 69.002C50.697 68.558 50.553 68.195 50.265 67.913C49.983 67.625 49.605 67.481 49.131 67.481C48.705 67.481 48.318 67.616 47.97 67.886C47.622 68.15 47.448 68.504 47.448 68.948C47.448 69.404 47.604 69.779 47.916 70.073C48.234 70.367 48.624 70.514 49.086 70.514ZM52.5516 64.7L52.0116 66.725H51.4716L51.8316 64.7H52.5516ZM56.531 69.623L57.044 69.92C56.888 70.286 56.63 70.577 56.27 70.793C55.916 71.003 55.496 71.108 55.01 71.108C54.326 71.108 53.774 70.886 53.354 70.442C52.94 69.992 52.733 69.428 52.733 68.75C52.733 68.072 52.94 67.511 53.354 67.067C53.768 66.617 54.314 66.392 54.992 66.392C55.442 66.392 55.844 66.497 56.198 66.707C56.558 66.917 56.828 67.205 57.008 67.571L56.486 67.868C56.36 67.592 56.165 67.373 55.901 67.211C55.637 67.049 55.334 66.968 54.992 66.968C54.542 66.968 54.167 67.109 53.867 67.391C53.573 67.667 53.399 68.024 53.345 68.462H55.586V69.038H53.345C53.405 69.476 53.585 69.836 53.885 70.118C54.185 70.394 54.56 70.532 55.01 70.532C55.394 70.532 55.718 70.451 55.982 70.289C56.246 70.121 56.429 69.899 56.531 69.623ZM61.5467 70.424H62.1767V72.206H61.5827V71H57.9107V72.206H57.3167V70.424H57.8657C58.1717 70.022 58.3247 69.455 58.3247 68.723V66.5H61.5467V70.424ZM58.5857 70.424H60.9527V67.076H58.9187V68.723C58.9187 69.413 58.8077 69.98 58.5857 70.424ZM66.2613 66.5H66.8553V71H66.2613V69.038H63.6693V71H63.0753V66.5H63.6693V68.462H66.2613V66.5ZM71.3514 66.5H71.9814L70.0554 71.414C69.8814 71.858 69.6324 72.206 69.3084 72.458C68.9904 72.716 68.6334 72.83 68.2374 72.8V72.242C68.7774 72.302 69.1884 71.99 69.4704 71.306L69.5874 71.027L67.5714 66.5H68.2014L69.8934 70.271L71.3514 66.5ZM73.4193 65.78V65.258H75.7593V65.78H73.4193ZM75.9753 66.5H76.4793V71H75.8853V67.535L73.2033 71H72.6993V66.5H73.2933V69.965L75.9753 66.5ZM80.9755 66.5V67.076H79.3825V71H78.7885V67.076H77.1955V66.5H80.9755ZM83.6026 66.392C84.2686 66.392 84.8056 66.629 85.2136 67.103C85.6276 67.571 85.8346 68.126 85.8346 68.768C85.8346 68.834 85.8286 68.927 85.8166 69.047H81.8656C81.9256 69.503 82.1176 69.866 82.4416 70.136C82.7716 70.4 83.1766 70.532 83.6566 70.532C83.9986 70.532 84.2926 70.463 84.5386 70.325C84.7906 70.181 84.9796 69.995 85.1056 69.767L85.6276 70.073C85.4296 70.391 85.1596 70.643 84.8176 70.829C84.4756 71.015 84.0856 71.108 83.6476 71.108C82.9396 71.108 82.3636 70.886 81.9196 70.442C81.4756 69.998 81.2536 69.434 81.2536 68.75C81.2536 68.078 81.4726 67.517 81.9106 67.067C82.3486 66.617 82.9126 66.392 83.6026 66.392ZM83.6026 66.968C83.1346 66.968 82.7416 67.109 82.4236 67.391C82.1116 67.667 81.9256 68.027 81.8656 68.471H85.2226C85.1626 67.997 84.9796 67.628 84.6736 67.364C84.3676 67.1 84.0106 66.968 83.6026 66.968ZM88.8764 71.108C88.1984 71.108 87.6344 70.883 87.1844 70.433C86.7344 69.977 86.5094 69.416 86.5094 68.75C86.5094 68.084 86.7344 67.526 87.1844 67.076C87.6344 66.62 88.1984 66.392 88.8764 66.392C89.3204 66.392 89.7194 66.5 90.0734 66.716C90.4274 66.926 90.6854 67.211 90.8474 67.571L90.3614 67.85C90.2414 67.58 90.0464 67.367 89.7764 67.211C89.5124 67.049 89.2124 66.968 88.8764 66.968C88.3784 66.968 87.9584 67.142 87.6164 67.49C87.2744 67.832 87.1034 68.252 87.1034 68.75C87.1034 69.248 87.2744 69.671 87.6164 70.019C87.9584 70.361 88.3784 70.532 88.8764 70.532C89.2124 70.532 89.5124 70.454 89.7764 70.298C90.0404 70.136 90.2474 69.92 90.3974 69.65L90.8924 69.938C90.7064 70.298 90.4334 70.583 90.0734 70.793C89.7134 71.003 89.3144 71.108 88.8764 71.108ZM93.5722 68.21C93.9922 68.21 94.3462 68.342 94.6342 68.606C94.9282 68.864 95.0752 69.197 95.0752 69.605C95.0752 70.013 94.9282 70.349 94.6342 70.613C94.3462 70.871 93.9922 71 93.5722 71H91.7452V66.5H92.3392V68.21H93.5722ZM93.5722 70.424C93.8242 70.424 94.0372 70.349 94.2112 70.199C94.3912 70.049 94.4812 69.851 94.4812 69.605C94.4812 69.359 94.3912 69.161 94.2112 69.011C94.0372 68.861 93.8242 68.786 93.5722 68.786H92.3392V70.424H93.5722ZM100.635 66.392C101.277 66.392 101.823 66.62 102.273 67.076C102.729 67.532 102.957 68.09 102.957 68.75C102.957 69.41 102.729 69.968 102.273 70.424C101.823 70.88 101.277 71.108 100.635 71.108C99.8368 71.108 99.2308 70.778 98.8168 70.118V72.8H98.2228V66.5H98.8168V67.382C99.2308 66.722 99.8368 66.392 100.635 66.392ZM99.3298 70.019C99.6718 70.361 100.092 70.532 100.59 70.532C101.088 70.532 101.508 70.361 101.85 70.019C102.192 69.671 102.363 69.248 102.363 68.75C102.363 68.252 102.192 67.832 101.85 67.49C101.508 67.142 101.088 66.968 100.59 66.968C100.092 66.968 99.6718 67.142 99.3298 67.49C98.9878 67.832 98.8168 68.252 98.8168 68.75C98.8168 69.248 98.9878 69.671 99.3298 70.019ZM107.814 66.5H108.408V71H107.814V70.118C107.4 70.778 106.794 71.108 105.996 71.108C105.354 71.108 104.805 70.88 104.349 70.424C103.899 69.968 103.674 69.41 103.674 68.75C103.674 68.09 103.899 67.532 104.349 67.076C104.805 66.62 105.354 66.392 105.996 66.392C106.794 66.392 107.4 66.722 107.814 67.382V66.5ZM104.781 70.019C105.123 70.361 105.543 70.532 106.041 70.532C106.539 70.532 106.959 70.361 107.301 70.019C107.643 69.671 107.814 69.248 107.814 68.75C107.814 68.252 107.643 67.832 107.301 67.49C106.959 67.142 106.539 66.968 106.041 66.968C105.543 66.968 105.123 67.142 104.781 67.49C104.439 67.832 104.268 68.252 104.268 68.75C104.268 69.248 104.439 69.671 104.781 70.019ZM111.988 68.687C112.51 68.885 112.771 69.245 112.771 69.767C112.771 70.139 112.624 70.457 112.33 70.721C112.042 70.979 111.628 71.108 111.088 71.108C110.182 71.108 109.588 70.748 109.306 70.028L109.81 69.731C109.996 70.265 110.422 70.532 111.088 70.532C111.436 70.532 111.703 70.457 111.889 70.307C112.081 70.157 112.177 69.965 112.177 69.731C112.177 69.521 112.099 69.35 111.943 69.218C111.787 69.086 111.577 69.02 111.313 69.02H110.656V68.444H111.133C111.391 68.444 111.592 68.381 111.736 68.255C111.886 68.123 111.961 67.943 111.961 67.715C111.961 67.499 111.874 67.322 111.7 67.184C111.526 67.04 111.292 66.968 110.998 66.968C110.434 66.968 110.059 67.193 109.873 67.643L109.378 67.355C109.678 66.713 110.218 66.392 110.998 66.392C111.472 66.392 111.85 66.518 112.132 66.77C112.414 67.016 112.555 67.319 112.555 67.679C112.555 68.141 112.366 68.477 111.988 68.687ZM117.445 70.433C116.989 70.883 116.431 71.108 115.771 71.108C115.111 71.108 114.55 70.883 114.088 70.433C113.632 69.977 113.404 69.416 113.404 68.75C113.404 68.084 113.632 67.526 114.088 67.076C114.55 66.62 115.111 66.392 115.771 66.392C116.431 66.392 116.989 66.62 117.445 67.076C117.907 67.526 118.138 68.084 118.138 68.75C118.138 69.416 117.907 69.977 117.445 70.433ZM114.511 70.019C114.853 70.361 115.273 70.532 115.771 70.532C116.269 70.532 116.689 70.361 117.031 70.019C117.373 69.671 117.544 69.248 117.544 68.75C117.544 68.252 117.373 67.832 117.031 67.49C116.689 67.142 116.269 66.968 115.771 66.968C115.273 66.968 114.853 67.142 114.511 67.49C114.169 67.832 113.998 68.252 113.998 68.75C113.998 69.248 114.169 69.671 114.511 70.019ZM123.542 66.5V71H122.948V67.409L121.373 69.965H121.301L119.726 67.409V71H119.132V66.5H119.816L121.337 68.966L122.858 66.5H123.542Z" fill="white"/>
</svg>
