<svg width="28" height="30" viewBox="0 0 28 30" fill="none" xmlns="http://www.w3.org/2000/svg">
<path fill-rule="evenodd" clip-rule="evenodd" d="M23.8102 17.7185C22.0967 17.0568 20.3179 16.5926 18.509 16.2926H18.4278C20.5455 14.865 21.9414 12.4438 21.9414 9.70501V9.31677C21.5002 9.59912 20.9355 9.96971 20.1431 10.2185C19.8943 13.3774 17.2296 15.8815 14.0002 15.8815C10.8784 15.8815 8.28255 13.5538 7.89431 10.5344C7.84138 10.2697 7.82374 9.98913 7.82374 9.70501V8.75207C7.84491 8.7503 7.85902 8.74501 7.8802 8.74147C8.04431 8.71324 8.19078 8.67618 8.33902 8.63737C8.46608 8.6056 8.59136 8.57205 8.70433 8.53324C8.82785 8.4909 8.94608 8.44854 9.05725 8.39913C9.18431 8.34441 9.30078 8.28794 9.41725 8.22794C9.49667 8.18383 9.57961 8.14501 9.65374 8.10088C9.76259 8.03639 9.87025 7.96991 9.97667 7.90147C10.0296 7.86618 10.0914 7.83088 10.1408 7.79913C10.2167 7.74971 10.2908 7.7056 10.3649 7.65971C10.9031 7.32265 11.4167 7.05971 12.3731 7.05794H12.3767C13.2078 7.05794 13.7037 7.24677 14.1678 7.51147C14.3214 7.59971 14.4731 7.69854 14.6337 7.80088C15.1825 8.15736 15.7896 8.54383 16.7231 8.72207C16.7337 8.72383 16.7408 8.72913 16.7514 8.73088C17.069 8.78913 17.4255 8.82265 17.8296 8.82265C17.8367 8.82265 17.842 8.82088 17.849 8.82088C19.4637 8.81737 20.3055 8.27737 21.0449 7.79913L21.9167 7.26088V7.25913L21.9255 7.25207L21.8637 6.91854L21.8267 6.67677C21.7437 6.13854 21.5884 5.62324 21.4014 5.12207C21.0149 4.07913 20.4237 3.12265 19.612 2.31265C19.1902 1.88737 18.712 1.51677 18.2178 1.21677C16.9649 0.424428 15.5002 -0.00088501 14.0002 -0.00088501C10.559 -0.00088501 7.61197 2.20501 6.51785 5.29324C6.21785 6.12265 6.05902 7.00501 6.05902 7.9403V9.70501C6.05902 10.005 6.07667 10.305 6.11374 10.5873C6.37667 12.968 7.70549 15.0115 9.59374 16.2838H9.51431C7.76725 16.5715 6.04491 17.018 4.38255 17.6462C2.18549 18.4791 0.764893 20.5121 0.764893 22.8291V26.0797L1.18314 26.3373C3.87431 28.0085 8.28431 29.9991 14.0002 29.9991C17.1555 29.9991 21.9414 29.3656 26.819 26.3373L27.2355 26.0797V22.8291C27.2355 20.565 25.859 18.5126 23.8102 17.7185Z" fill="white"/>
</svg>
